<?xml version="1.0" encoding="iso-8859-1"?>
<!-- Generator: Adobe Illustrator 18.0.0, SVG Export Plug-In . SVG Version: 6.00 Build 0)  -->
<!DOCTYPE svg PUBLIC "-//W3C//DTD SVG 1.1//EN" "http://www.w3.org/Graphics/SVG/1.1/DTD/svg11.dtd">
<svg version="1.1" id="Capa_1" xmlns="http://www.w3.org/2000/svg" xmlns:xlink="http://www.w3.org/1999/xlink" x="0px" y="0px"
	 viewBox="0 0 297 297"  fill="#FFF3E2" style="enable-background:new 0 0 297 297;" xml:space="preserve">
<path d="M292.449,80.858l-30.332-30.338c-2.651-2.652-6.594-3.542-10.133-2.286c-17.634,6.272-37.872,19.171-51.558,32.859
	c-2.868,2.868-6.773,7.5-11.529,13.505c1.87-12.986,3.059-23.15,3.059-29.351c0-19.349-5.192-42.781-13.227-59.697
	C177.118,2.161,173.7,0,169.948,0h-42.895c-3.753,0-7.171,2.16-8.781,5.55c-8.034,16.91-13.226,40.343-13.226,59.698
	c0,6.2,1.188,16.364,3.059,29.351c-4.756-6.005-8.661-10.637-11.529-13.505c-13.69-13.69-33.929-26.587-51.56-32.858
	c-3.535-1.258-7.479-0.367-10.133,2.286L4.551,80.859c-2.654,2.653-3.543,6.598-2.284,10.133
	c6.275,17.641,19.173,37.88,32.854,51.561c7.537,7.541,27.211,22.214,52.118,40.79c7.011,5.229,14.336,10.693,21.786,16.292
	c-11.86,14.884-23.481,28.744-34.016,39.957c-1.3-0.624-2.735-0.957-4.205-0.958c-0.002,0-0.003,0-0.003,0
	c-2.578,0-5.052,1.024-6.874,2.847l-15.066,15.061c-1.823,1.823-2.848,4.296-2.848,6.875c0,2.578,1.023,5.052,2.847,6.874
	l23.856,23.86c1.823,1.823,4.296,2.848,6.874,2.848c2.58,0,5.053-1.024,6.876-2.848l15.059-15.064
	c2.999-3.001,3.629-7.475,1.887-11.093c7.26-6.822,15.634-14.103,24.675-21.607c0.139,2.612,0.251,5.18,0.331,7.686
	c-3.787,1.328-6.503,4.936-6.503,9.177v21.302c0,5.369,4.353,9.722,9.721,9.722h33.729c5.368,0,9.721-4.353,9.721-9.722v-21.302
	c0-4.242-2.717-7.85-6.505-9.177c0.08-2.506,0.193-5.073,0.331-7.686c9.043,7.507,17.419,14.787,24.68,21.612
	c-1.74,3.617-1.111,8.089,1.887,11.089l15.055,15.064c1.824,1.823,4.297,2.849,6.876,2.849h0.001c2.578,0,5.051-1.024,6.874-2.848
	l23.856-23.859c1.822-1.822,2.847-4.296,2.847-6.874c0-2.578-1.024-5.051-2.848-6.874l-15.064-15.061
	c-1.822-1.823-4.295-2.848-6.873-2.848h-0.003c-1.471,0.001-2.906,0.334-4.207,0.959c-10.534-11.214-22.155-25.074-34.016-39.96
	c7.453-5.601,14.78-11.066,21.794-16.296c24.903-18.574,44.575-33.245,52.112-40.784c13.682-13.686,26.576-33.926,32.852-51.563
	C295.991,87.456,295.104,83.512,292.449,80.858z M121.591,184.337c-7.586-5.7-15.596-11.26-22.729-16.579
	c-23.314-17.389-43.45-32.406-49.992-38.95c-10.185-10.187-20.18-25.14-26.061-38.711l21.314-21.318
	c13.564,5.879,28.514,15.873,38.705,26.063c5.582,5.585,17.344,21.083,31.482,40.006
	C116.748,150.395,119.317,167.753,121.591,184.337z M125.127,211.362c0.411,3.691,0.792,7.794,1.144,11.399
	c-16.535,13.332-31.665,26.329-43.203,37.868c-3.039,3.04-3.646,7.594-1.815,11.236l-1.662,1.661l-10.105-10.108l1.663-1.663
	c1.339,0.671,2.826,1.029,4.351,1.029h0.003c2.579,0,5.052-1.024,6.875-2.848C95.152,247.159,110.303,229.98,125.127,211.362z
	 M155.643,274.829h-14.285v-2.352c3.867-1.283,6.657-4.931,6.657-9.229c0-39.272-8.722-94.709-15.729-139.253
	c-4.184-26.59-7.796-49.555-7.796-58.748c0-14.41,3.504-32.05,8.941-45.805h30.138c5.438,13.76,8.944,31.4,8.944,45.805
	c0,9.193-3.613,32.158-7.797,58.748c-7.01,44.543-15.732,99.979-15.732,139.253c0,4.299,2.79,7.946,6.659,9.229V274.829z
	 M171.873,211.361c14.825,18.618,29.975,35.799,42.75,48.578c1.824,1.823,4.297,2.848,6.876,2.848h0.003
	c1.524,0,3.013-0.358,4.351-1.03l1.662,1.664l-10.105,10.106l-1.661-1.661c1.829-3.643,1.223-8.194-1.816-11.234
	c-11.537-11.54-26.669-24.536-43.203-37.869C171.08,219.156,171.462,215.054,171.873,211.361z M175.409,184.337
	c2.274-16.583,4.843-33.942,7.281-49.488c14.14-18.924,25.901-34.423,31.484-40.008c10.189-10.189,25.137-20.184,38.703-26.063
	l21.313,21.318c-5.881,13.571-15.875,28.523-26.061,38.712c-6.54,6.543-26.674,21.558-49.986,38.945
	C191.011,173.074,182.997,178.634,175.409,184.337z"/>
<g>
</g>
<g>
</g>
<g>
</g>
<g>
</g>
<g>
</g>
<g>
</g>
<g>
</g>
<g>
</g>
<g>
</g>
<g>
</g>
<g>
</g>
<g>
</g>
<g>
</g>
<g>
</g>
<g>
</g>
</svg>
