<svg id="visual" viewBox="0 0 2000 600" width="2000" height="600" xmlns="http://www.w3.org/2000/svg"
     xmlns:xlink="http://www.w3.org/1999/xlink" version="1.1">
<!--    <defs>-->
<!--        <linearGradient id="gradient1">-->
<!--            <stop class="stop1" offset="0%"/>-->
<!--            <stop class="stop2" offset="50%"/>-->
<!--            <stop class="stop3" offset="100%"/>-->
<!--        </linearGradient>-->
<!--        <style type="text/css"><![CDATA[-->
<!--            .stop1{stop-color: #432E3A}-->
<!--            .stop2{stop-color: #41415C}-->
<!--            .stop3{stop-color: #332D3D}-->
<!--        ]]></style>-->
<!--    </defs>-->
    <rect x="0" y="0" width="2000" height="600" fill="#ffd4d4"/>
    <path d="M0 77L87 77L174 56L261 46L348 45L435 24L522 26L609 64L696 39L783 18L870 36L957 58L1043 67L1130 54L1217 55L1304 71L1391 54L1478 38L1565 58L1652 65L1739 34L1826 72L1913 18L2000 54L2000 601L1913 601L1826 601L1739 601L1652 601L1565 601L1478 601L1391 601L1304 601L1217 601L1130 601L1043 601L957 601L870 601L783 601L696 601L609 601L522 601L435 601L348 601L261 601L174 601L87 601L0 601Z"
          fill="#ffd4d4"/>
    <path d="M0 65L87 75L174 75L261 97L348 81L435 78L522 98L609 107L696 67L783 67L870 123L957 87L1043 111L1130 65L1217 63L1304 94L1391 79L1478 72L1565 76L1652 105L1739 112L1826 95L1913 88L2000 85L2000 601L1913 601L1826 601L1739 601L1652 601L1565 601L1478 601L1391 601L1304 601L1217 601L1130 601L1043 601L957 601L870 601L783 601L696 601L609 601L522 601L435 601L348 601L261 601L174 601L87 601L0 601Z"
          fill="#edc3c5"/>
    <path d="M0 119L87 109L174 148L261 147L348 119L435 124L522 141L609 130L696 157L783 127L870 122L957 119L1043 156L1130 164L1217 128L1304 115L1391 131L1478 157L1565 111L1652 143L1739 137L1826 153L1913 105L2000 125L2000 601L1913 601L1826 601L1739 601L1652 601L1565 601L1478 601L1391 601L1304 601L1217 601L1130 601L1043 601L957 601L870 601L783 601L696 601L609 601L522 601L435 601L348 601L261 601L174 601L87 601L0 601Z"
          fill="#dbb2b6"/>
    <path d="M0 157L87 161L174 203L261 194L348 184L435 206L522 184L609 169L696 177L783 207L870 191L957 166L1043 187L1130 203L1217 195L1304 200L1391 188L1478 153L1565 206L1652 206L1739 185L1826 160L1913 186L2000 158L2000 601L1913 601L1826 601L1739 601L1652 601L1565 601L1478 601L1391 601L1304 601L1217 601L1130 601L1043 601L957 601L870 601L783 601L696 601L609 601L522 601L435 601L348 601L261 601L174 601L87 601L0 601Z"
          fill="#c9a2a8"/>
    <path d="M0 244L87 206L174 212L261 216L348 244L435 254L522 239L609 248L696 220L783 198L870 218L957 258L1043 255L1130 234L1217 239L1304 198L1391 233L1478 236L1565 252L1652 253L1739 198L1826 232L1913 225L2000 219L2000 601L1913 601L1826 601L1739 601L1652 601L1565 601L1478 601L1391 601L1304 601L1217 601L1130 601L1043 601L957 601L870 601L783 601L696 601L609 601L522 601L435 601L348 601L261 601L174 601L87 601L0 601Z"
          fill="#b79299"/>
    <path d="M0 262L87 257L174 249L261 279L348 288L435 260L522 251L609 246L696 282L783 270L870 267L957 255L1043 278L1130 280L1217 245L1304 306L1391 245L1478 290L1565 306L1652 273L1739 248L1826 296L1913 265L2000 260L2000 601L1913 601L1826 601L1739 601L1652 601L1565 601L1478 601L1391 601L1304 601L1217 601L1130 601L1043 601L957 601L870 601L783 601L696 601L609 601L522 601L435 601L348 601L261 601L174 601L87 601L0 601Z"
          fill="#a6838b"/>
    <path d="M0 299L87 319L174 307L261 343L348 328L435 314L522 353L609 344L696 301L783 313L870 318L957 354L1043 343L1130 313L1217 321L1304 304L1391 297L1478 322L1565 353L1652 304L1739 308L1826 298L1913 348L2000 306L2000 601L1913 601L1826 601L1739 601L1652 601L1565 601L1478 601L1391 601L1304 601L1217 601L1130 601L1043 601L957 601L870 601L783 601L696 601L609 601L522 601L435 601L348 601L261 601L174 601L87 601L0 601Z"
          fill="#94737d"/>
    <path d="M0 391L87 383L174 357L261 398L348 343L435 344L522 366L609 354L696 338L783 362L870 367L957 385L1043 363L1130 374L1217 347L1304 372L1391 340L1478 373L1565 367L1652 361L1739 360L1826 352L1913 344L2000 359L2000 601L1913 601L1826 601L1739 601L1652 601L1565 601L1478 601L1391 601L1304 601L1217 601L1130 601L1043 601L957 601L870 601L783 601L696 601L609 601L522 601L435 601L348 601L261 601L174 601L87 601L0 601Z"
          fill="#83656f"/>
    <path d="M0 387L87 426L174 402L261 409L348 391L435 388L522 425L609 402L696 425L783 388L870 416L957 404L1043 391L1130 397L1217 399L1304 417L1391 399L1478 414L1565 441L1652 441L1739 390L1826 398L1913 438L2000 401L2000 601L1913 601L1826 601L1739 601L1652 601L1565 601L1478 601L1391 601L1304 601L1217 601L1130 601L1043 601L957 601L870 601L783 601L696 601L609 601L522 601L435 601L348 601L261 601L174 601L87 601L0 601Z"
          fill="#735661"/>
    <path d="M0 490L87 452L174 457L261 485L348 432L435 435L522 453L609 480L696 467L783 446L870 473L957 481L1043 451L1130 490L1217 433L1304 435L1391 440L1478 464L1565 465L1652 450L1739 453L1826 441L1913 481L2000 491L2000 601L1913 601L1826 601L1739 601L1652 601L1565 601L1478 601L1391 601L1304 601L1217 601L1130 601L1043 601L957 601L870 601L783 601L696 601L609 601L522 601L435 601L348 601L261 601L174 601L87 601L0 601Z"
          fill="#624854"/>
    <path d="M0 489L87 523L174 487L261 516L348 533L435 489L522 515L609 507L696 503L783 507L870 477L957 484L1043 532L1130 498L1217 475L1304 511L1391 479L1478 511L1565 504L1652 522L1739 511L1826 501L1913 482L2000 498L2000 601L1913 601L1826 601L1739 601L1652 601L1565 601L1478 601L1391 601L1304 601L1217 601L1130 601L1043 601L957 601L870 601L783 601L696 601L609 601L522 601L435 601L348 601L261 601L174 601L87 601L0 601Z"
          fill="#523b47"/>
    <path d="M0 546L87 556L174 542L261 567L348 577L435 528L522 530L609 564L696 552L783 555L870 577L957 582L1043 583L1130 584L1217 563L1304 560L1391 529L1478 544L1565 571L1652 547L1739 525L1826 530L1913 525L2000 547L2000 601L1913 601L1826 601L1739 601L1652 601L1565 601L1478 601L1391 601L1304 601L1217 601L1130 601L1043 601L957 601L870 601L783 601L696 601L609 601L522 601L435 601L348 601L261 601L174 601L87 601L0 601Z"
          fill="#432e3a"/>

</svg>